<svg width="90" height="89" viewBox="0 0 90 89" fill="none" xmlns="http://www.w3.org/2000/svg">
<path d="M27.8645 37.9676C23.8939 30.915 31.7079 23.101 38.7604 27.0717L41.3681 28.5398C43.8048 29.9117 46.7809 29.9117 49.2176 28.5398L51.8253 27.0717C58.8779 23.101 66.6918 30.915 62.7212 37.9676L61.253 40.5752C59.8812 43.0119 59.8812 45.9881 61.253 48.4248L62.7212 51.0324C66.6918 58.085 58.8779 65.899 51.8253 61.9283L49.2176 60.4602C46.7809 59.0883 43.8048 59.0883 41.3681 60.4602L38.7604 61.9283C31.7079 65.899 23.8939 58.085 27.8645 51.0324L29.3327 48.4248C30.7046 45.9881 30.7046 43.0119 29.3327 40.5752L27.8645 37.9676Z" fill="#413E45"/>
</svg>
