<svg width="90" height="89" viewBox="0 0 90 89" fill="none" xmlns="http://www.w3.org/2000/svg">
<path d="M44.1481 3.64533C44.5 2.52474 46.0859 2.52474 46.4378 3.64532L55.7409 33.2668C55.8585 33.6412 56.1517 33.9345 56.5262 34.0521L86.1476 43.3551C87.2682 43.7071 87.2682 45.2929 86.1476 45.6449L56.5262 54.9479C56.1517 55.0655 55.8585 55.3588 55.7409 55.7332L46.4378 85.3547C46.0859 86.4753 44.5 86.4753 44.1481 85.3547L34.8451 55.7332C34.7275 55.3588 34.4342 55.0655 34.0598 54.9479L4.43829 45.6449C3.31771 45.2929 3.31771 43.7071 4.43829 43.3551L34.0598 34.0521C34.4342 33.9345 34.7275 33.6412 34.8451 33.2668L44.1481 3.64533Z" fill="#413E45"/>
</svg>
