<svg width="19" height="19" viewBox="0 0 19 19" fill="none" xmlns="http://www.w3.org/2000/svg">
<path d="M8.53047 0.836832C8.78485 -0.16985 10.2151 -0.169848 10.4695 0.836833L11.2786 4.03853C11.4312 4.64276 12.0934 4.96166 12.661 4.70429L15.6686 3.3406C16.6143 2.91182 17.5061 4.03007 16.8776 4.85661L14.8789 7.48536C14.5017 7.98147 14.6652 8.69801 15.2203 8.98132L18.1617 10.4825C19.0865 10.9545 18.7683 12.349 17.7302 12.373L14.4288 12.4493C13.8057 12.4637 13.3475 13.0383 13.4721 13.6489L14.1323 16.8846C14.3399 17.9019 13.0513 18.5225 12.3853 17.7259L10.2672 15.1923C9.86749 14.7142 9.13251 14.7142 8.73278 15.1923L6.61471 17.7259C5.94874 18.5225 4.66008 17.9019 4.86768 16.8846L5.52793 13.6489C5.65253 13.0383 5.19429 12.4637 4.57123 12.4493L1.26977 12.373C0.231728 12.349 -0.0865412 10.9545 0.838297 10.4825L3.77969 8.98132C4.3348 8.69801 4.49835 7.98147 4.12114 7.48536L2.12237 4.85661C1.49392 4.03007 2.3857 2.91182 3.33135 3.3406L6.33896 4.70429C6.90657 4.96166 7.56876 4.64276 7.72144 4.03853L8.53047 0.836832Z" fill="black"/>
</svg>
