<svg width="28" height="32" viewBox="0 0 28 32" fill="none" xmlns="http://www.w3.org/2000/svg">
<path d="M23.45 11.232V9.33331C23.45 4.17869 19.2191 0 14 0C8.78087 0 4.55001 4.17869 4.55001 9.33331V11.232C2.09304 12.2911 0.503544 14.6857 0.5 17.3333V25.3333C0.50443 29.0134 3.5239 31.9956 7.24997 32H20.75C24.476 31.9956 27.4955 29.0134 27.5 25.3333V17.3333C27.4965 14.6857 25.907 12.2911 23.45 11.232ZM15.35 22.6667C15.35 23.4031 14.7456 24 14 24C13.2544 24 12.65 23.4031 12.65 22.6667V20C12.65 19.2636 13.2544 18.6667 14 18.6667C14.7456 18.6667 15.35 19.2636 15.35 20V22.6667ZM20.75 10.6667H7.24997V9.33337C7.24997 5.6515 10.272 2.66669 14 2.66669C17.728 2.66669 20.75 5.65144 20.75 9.33337V10.6667Z" fill="#BFB17F"/>
</svg>
